<?xml version="1.0" encoding="UTF-8" standalone="no"?>
<!-- Created with Inkscape (http://www.inkscape.org/) -->

<svg
   width="186.52496mm"
   height="99.835243mm"
   viewBox="0 0 186.52496 99.835243"
   version="1.1"
   id="svg5"
   inkscape:version="1.1 (c68e22c387, 2021-05-23)"
   sodipodi:docname="cover.svg"
   xmlns:inkscape="http://www.inkscape.org/namespaces/inkscape"
   xmlns:sodipodi="http://sodipodi.sourceforge.net/DTD/sodipodi-0.dtd"
   xmlns="http://www.w3.org/2000/svg"
   xmlns:svg="http://www.w3.org/2000/svg">
  <sodipodi:namedview
     id="namedview7"
     pagecolor="#ffffff"
     bordercolor="#666666"
     borderopacity="1.0"
     inkscape:pageshadow="2"
     inkscape:pageopacity="0.0"
     inkscape:pagecheckerboard="0"
     inkscape:document-units="mm"
     showgrid="false"
     inkscape:zoom="1.4467452"
     inkscape:cx="215.31089"
     inkscape:cy="219.45813"
     inkscape:window-width="2400"
     inkscape:window-height="1271"
     inkscape:window-x="4791"
     inkscape:window-y="137"
     inkscape:window-maximized="1"
     inkscape:current-layer="layer1" />
  <defs
     id="defs2" />
  <g
     inkscape:label="Layer 1"
     inkscape:groupmode="layer"
     id="layer1"
     transform="translate(-12.066742,-23.050193)">
    <path
       style="fill:none;stroke:#000000;stroke-width:1;stroke-linecap:butt;stroke-linejoin:miter;stroke-miterlimit:4;stroke-dasharray:none;stroke-opacity:1"
       d="m 12.801724,119.23891 25.237683,-85.771545 24.323278,-9.326971 21.214284,8.595443 23.408871,-9.144088 21.0314,9.326971 21.76293,-8.778326 23.77463,8.41256 24.32328,89.612066 -31.82143,-8.9612 -31.0899,8.59544 -28.52956,-8.22968 -32.004309,7.13239 -28.529557,-10.79003 z"
       id="path87" />
    <path
       style="fill:none;stroke:#000000;stroke-width:0.5;stroke-linecap:butt;stroke-linejoin:miter;stroke-miterlimit:4;stroke-dasharray:none;stroke-opacity:1"
       d="M 62.362685,24.140394 45.903324,109.91194"
       id="path1017" />
    <path
       style="fill:none;stroke:#000000;stroke-width:0.5;stroke-linecap:butt;stroke-linejoin:miter;stroke-miterlimit:4;stroke-dasharray:none;stroke-opacity:1"
       d="M 83.576969,32.735837 74.432881,120.70197"
       id="path1019" />
    <path
       style="fill:none;stroke:#000000;stroke-width:0.5;stroke-linecap:butt;stroke-linejoin:miter;stroke-miterlimit:4;stroke-dasharray:none;stroke-opacity:1"
       d="m 106.98584,23.591749 -0.54865,89.977831"
       id="path1021" />
    <path
       style="fill:none;stroke:#000000;stroke-width:0.5;stroke-linecap:butt;stroke-linejoin:miter;stroke-miterlimit:4;stroke-dasharray:none;stroke-opacity:1"
       d="m 128.01724,32.91872 6.94951,88.88054"
       id="path1023" />
    <path
       style="fill:none;stroke:#000000;stroke-width:0.5;stroke-linecap:butt;stroke-linejoin:miter;stroke-miterlimit:4;stroke-dasharray:none;stroke-opacity:1"
       d="m 149.78017,24.140394 16.27648,89.063426"
       id="path1025" />
    <path
       style="fill:#f0f0e1;fill-opacity:1;stroke-width:1.30622;stroke-miterlimit:4;stroke-dasharray:none"
       d="m 52.103522,446.00113 c 0.195897,-0.66529 21.24946,-72.28295 46.785697,-159.15035 25.536231,-86.8674 46.632451,-158.1653 46.880471,-158.43978 0.65306,-0.72274 87.2664,-33.846651 87.60854,-33.504517 0.2956,0.295605 -60.50445,317.894167 -60.94126,318.336137 -0.13405,0.13564 -8.27171,2.51368 -18.08368,5.28455 -68.099519,19.231 -101.764,28.68357 -102.154019,28.68357 -0.248559,0 -0.291646,-0.54433 -0.09575,-1.20961 z"
       id="path1756"
       transform="scale(0.26458333)" />
    <path
       style="fill:#f0f0e1;fill-opacity:1;stroke-width:1.30622;stroke-miterlimit:4;stroke-dasharray:none"
       d="m 283.17704,449.98357 c 0.23451,-1.9801 7.92593,-75.75508 17.09205,-163.94442 l 16.66565,-160.34424 42.84658,-16.74228 42.84658,-16.742275 0.19266,10.055365 c 0.39233,20.47722 -1.84408,324.40573 -2.39053,324.87266 -0.41317,0.35307 -104.44849,23.76238 -116.14772,26.13478 -1.46585,0.29725 -1.51334,0.15591 -1.10527,-3.28959 z"
       id="path1795"
       transform="scale(0.26458333)" />
    <path
       style="fill:#f0f0e1;fill-opacity:1;stroke-width:1.30622;stroke-miterlimit:4;stroke-dasharray:none"
       d="M 498.45899,294.98957 C 491.48112,205.54665 485.62675,130.96639 485.44928,129.25565 l -0.32269,-3.11043 39.93817,-16.04223 c 21.96599,-8.82322 40.03096,-15.949435 40.14438,-15.836021 0.16571,0.165706 60.03306,327.289821 60.53593,330.777311 0.10758,0.74607 -13.52379,4.77355 -55.49954,16.39771 -30.60318,8.47481 -56.42005,15.58026 -57.37083,15.78991 l -1.72869,0.38117 z"
       id="path1834"
       transform="scale(0.26458333)" />
    <path
       style="fill:#e6e6d7;fill-opacity:1;stroke-width:1.30622;stroke-miterlimit:4;stroke-dasharray:none"
       d="M 227.35082,433.48704 175.10853,413.66967 205.7307,254.0872 c 16.84219,-87.77035 30.72259,-159.682885 30.84534,-159.80563 0.15534,-0.155346 76.08012,30.27448 77.71831,31.14866 0.0775,0.0414 -7.4609,73.15873 -16.75198,162.48306 -9.29109,89.32433 -16.89728,163.10772 -16.90267,163.96309 -0.006,0.85537 -0.24306,1.52659 -0.52818,1.49162 -0.28513,-0.035 -24.02744,-8.98142 -52.7607,-19.88096 z"
       id="path2983"
       transform="scale(0.26458333)" />
    <path
       style="fill:#e6e6d7;fill-opacity:1;stroke-width:1.30622;stroke-miterlimit:4;stroke-dasharray:none"
       d="m 455.85082,442.44534 -51.8405,-15.00844 -0.19094,-10.96475 c -0.29585,-16.98895 1.76387,-323.234559 2.17675,-323.647443 0.20114,-0.201137 17.49225,7.213693 38.4247,16.477403 29.90182,13.23313 38.12269,17.13941 38.35618,18.22553 0.16345,0.76032 5.92567,74.01095 12.80493,162.77918 6.87927,88.76822 12.68673,162.71869 12.90546,164.33439 0.21873,1.61569 0.1291,2.90949 -0.19919,2.8751 -0.32829,-0.0344 -23.92511,-6.81632 -52.43739,-15.07097 z"
       id="path3100"
       transform="scale(0.26458333)" />
    <path
       style="fill:#e6e6d7;fill-opacity:1;stroke-width:1.30622;stroke-miterlimit:4;stroke-dasharray:none"
       d="m 685.78133,442.00275 c -31.30615,-8.86934 -57.01469,-16.22483 -57.1301,-16.34555 -0.46896,-0.49054 -60.5219,-330.458494 -60.20068,-330.779715 0.19114,-0.19114 19.55233,6.454865 43.02488,14.768895 l 42.67735,15.11643 44.75898,164.8528 c 24.61743,90.66904 44.95443,165.70817 45.19333,166.75362 0.30916,1.35292 0.16949,1.88046 -0.48456,1.8302 -0.50541,-0.0389 -26.53305,-7.32734 -57.8392,-16.19668 z"
       id="path3139"
       transform="scale(0.26458333)" />
    <path
       style="fill:none;stroke:#004e00;stroke-width:2;stroke-linecap:butt;stroke-linejoin:miter;stroke-miterlimit:4;stroke-dasharray:2, 2;stroke-dashoffset:0;stroke-opacity:1"
       d="M 36.027709,95.281402 51.938422,50.841131 69.495074,74.981527 89.794949,60.533867 116.12993,98.390394 138.25862,54.864531"
       id="path6825" />
    <ellipse
       style="fill:#ff0000;fill-opacity:1;stroke:#000000;stroke-width:0.75;stroke-miterlimit:4;stroke-dasharray:none;stroke-opacity:1"
       id="path3820"
       cx="34.747536"
       cy="96.044258"
       rx="9.4420834"
       ry="5.9360042" />
    <g
       id="g5506"
       transform="matrix(0.05853918,0,0,0.05853918,127.75174,29.996525)"
       style="fill:#d4af37;fill-opacity:1;stroke:#000000;stroke-width:12.8119;stroke-miterlimit:4;stroke-dasharray:none;stroke-opacity:1">
      <path
         d="M 363.908,212.282 V 121.304 C 363.908,54.434 309.509,0 242.606,0 175.722,0 121.304,54.434 121.304,121.304 v 90.978 c -33.498,0 -60.653,27.158 -60.653,60.648 v 151.629 c 0,33.5 27.155,60.653 60.653,60.653 h 242.604 c 33.491,0 60.653,-27.153 60.653,-60.653 V 272.93 c 0.001,-33.491 -27.162,-60.648 -60.653,-60.648 z M 257.77,359.257 v 50.139 c 0,8.382 -6.781,15.163 -15.163,15.163 -8.382,0 -15.164,-6.781 -15.164,-15.163 v -50.139 c -8.9,-5.269 -15.161,-14.57 -15.161,-25.673 0,-16.765 13.579,-30.327 30.324,-30.327 16.745,0 30.326,13.562 30.326,30.327 10e-4,11.103 -6.267,20.405 -15.162,25.673 z m 45.485,-146.975 h -121.3 v -90.978 c 0,-33.465 27.2,-60.653 60.651,-60.653 33.435,0 60.648,27.188 60.648,60.653 v 90.978 z"
         id="path5504"
         style="fill:#d4af37;fill-opacity:1;stroke:#000000;stroke-width:12.8119;stroke-miterlimit:4;stroke-dasharray:none;stroke-opacity:1" />
    </g>
  </g>
</svg>
