<?xml version="1.0"?>
<svg viewBox="0 0 970 847" xmlns="http://www.w3.org/2000/svg" xmlns:xlink="http://www.w3.org/1999/xlink" style="text-anchor:middle;font-size:18px;stroke-linecap:square;stroke-linejoin:round;font-family:Arial,sans-serif;">
<g id="a">
<g transform="matrix(1.002 0 0 1.002 -1 -.4241)" stroke-width="2">
<path d="m1 69c0-37.6 30.5-68 68-68h831c18 0 35.4 7.2 48 20 12.8 12.8 20 30 20 48v273c0 37.6-30.5 68-68 68h-831c-37.6 0-68-30.5-68-68z" fill="#fff" stroke="#6ad"/>
<path d="m536 346-7.5-6.1 1.8 9.5zm1.67 9.22-4.6-7.7" stroke="#000"/>
</g>
<path d="m787.2 160.1h49.4v79.1h-49.4z" fill="#cdf"/>
<path d="m837.2 160.1 22.7-22.7v79l-22.7 22.7z" fill="#9ad"/>
<path d="m787.2 160.1 22.7-22.7h49l-22.7 22.7z" fill="#def"/>
<g transform="matrix(.44 0 0 .44 177.2 90.1)" fill="#a4c639">
<g id="e" transform="translate(-388,43)" stroke="#fff" stroke-width="7.2">
<rect transform="matrix(.88 .48 -.48 .88 0 0)" x="178" y="-94" width="10.1" height="43" rx="5.1" fill="#a4c639"/>
<ellipse cx="147" cy="110" rx="92" ry="84" fill="#a4c639" stroke="none"/>
<rect id="d" x="3.6" y="110" width="47.8" height="133" rx="23.9" fill="#a4c639"/>
<use x="85" y="97" fill="#a4c639" xlink:href="#d"/>
<rect x="55" y="89" width="183" height="182" rx="22" fill="#a4c639" stroke="none"/>
<path d="m48 114h197" fill="#a4c639"/>
</g>
<use transform="matrix(-1,0,0,1,-483,0)" fill="#a4c639" xlink:href="#e"/>
<circle cx="-200" cy="112" r="7.7" fill="#fff"/>
<circle cx="-283" cy="112" r="7.7" fill="#fff"/>
<path d="m-249.7 252.9v-5.85h10.71c2.704 0 4.888-2.181 4.888-4.888 0-2.704-2.184-4.888-4.888-4.888h-10.71m23.4 15.63v-5.85h10.71c2.704 0 4.888-2.181 4.888-4.888 0-2.704-2.184-4.888-4.888-4.888h-10.71m39-22.37h7.8c4.316 0 7.8-3.484 7.8-7.8s-3.484-7.8-7.8-7.8h-7.8m-7.8 15.6v-15.6m-15.6 0c4.316 0 7.8 3.484 7.8 7.8s-3.484 7.8-7.8 7.8-7.8-3.484-7.8-7.8 3.484-7.8 7.8-7.8zm-31.2 9.62h10.71c2.704 0 4.888-2.181 4.888-4.888 0-2.704-2.184-4.888-4.888-4.888h-10.71m15.6 15.6c0-3.224-2.626-5.85-5.85-5.85m-33.15 6.006h7.8c4.316 0 7.8-3.484 7.8-7.8s-3.484-7.8-7.8-7.8h-7.8m-23.4 15.6v-7.8c0-4.316 3.484-7.8 7.8-7.8s7.8 3.484 7.8 7.8v7.8m-31.07 0c-4.316 0-7.8-3.484-7.8-7.8s3.484-7.8 7.8-7.8h7.8v15.6m31.17 37.99c-4.316 0-7.8-3.484-7.8-7.8s3.484-7.8 7.8-7.8h7.8v15.6" fill="#a4c639" stroke="#06a" stroke-width="3.9"/>
</g>
<path d="m787 160 22.7-22.7h49.4v79.1l-22.7 22.7h-49.4zh49.4l22.7-22.7m-22.7 22.7v79.1" fill="none" stroke="#ccc" stroke-width="2"/>
<g transform="translate(.2 1.1)">
<path d="m836 104h57.8v134h-57.8z" fill="#cdf"/>
<path d="m894 104 19.3-19.3v134l-19.3 19.3z" fill="#9ad"/>
<path d="m836 104 19.3-19.3h57.8l-19.3 19.3z" fill="#def"/>
</g>
<path d="m836 105 19.3-19.3h57.8v134l-19.3 19.3h-57.8zh57.8l19.3-19.3m-19.3 19.3v134" fill="none" stroke="#ccc" stroke-width="2"/>
<g transform="translate(.2 1.1)">
<path d="m893 184h44.5v54.3h-44.5z" fill="#cdf"/>
<path d="m938 184 22.7-22.7v54l-22.7 22.7z" fill="#9ad"/>
<path d="m893 184 22.7-22.7h44.5l-22.7 22.7z" fill="#def"/>
</g>
<path d="m894 185 22.7-22.7h44.5v54.3l-22.7 22.7h-44.5zh44.5l22.7-22.7m-22.7 22.7v54.3" fill="none" stroke="#ccc" stroke-width="2"/>
<path transform="translate(.2 1.1)" d="m927 203h7.57v3.8h-7.57zm-9.95 0h7.57v3.8h-7.57zm-9.94 0h7.57v3.8h-7.57zm-9.95 0h7.57v3.8h-7.57zm29.8-8.61h7.57v3.8h-7.57zm-9.95 0h7.57v3.8h-7.57zm-9.94 0h7.57v3.8h-7.57zm-9.95 0h7.57v3.8h-7.57zm29.8-7.85h7.57v3.8h-7.57zm-9.95 0h7.57v3.8h-7.57zm-9.94 0h7.57v3.8h-7.57zm-9.95 0h7.57v3.8h-7.57zm-72.1 4.85h8.56v4.3h-8.56zm-11.2 0h8.56v4.3h-8.56zm-11.3 0h8.56v4.3h-8.56zm-11.2 0h8.56v4.3h-8.56zm33.8-8.88h8.56v4.3h-8.56zm-11.2 0h8.56v4.3h-8.56zm-11.3 0h8.56v4.3h-8.56zm-11.2 0h8.56v4.3h-8.56zm33.8-9.74h8.56v4.3h-8.56zm-11.2 0h8.56v4.3h-8.56zm-11.3 0h8.56v4.3h-8.56zm-11.2 0h8.56v4.3h-8.56zm33.8-8.88h8.56v4.3h-8.56zm-11.2 0h8.56v4.3h-8.56zm-11.3 0h8.56v4.3h-8.56zm-11.2 0h8.56v4.3h-8.56zm88.4 16h9.62v4.83h-9.62zm-12.6 0h9.62v4.83h-9.62zm-12.6 0h9.62v4.83h-9.62zm-12.6 0h9.62v4.83h-9.62zm37.9-9.97h9.62v4.83h-9.62zm-12.6 0h9.62v4.83h-9.62zm-12.6 0h9.62v4.83h-9.62zm-12.6 0h9.62v4.83h-9.62zm37.9-10.9h9.62v4.83h-9.62zm-12.6 0h9.62v4.83h-9.62zm-12.6 0h9.62v4.83h-9.62zm-12.6 0h9.62v4.83h-9.62zm37.9-9.96h9.62v4.83h-9.62zm-12.6 0h9.62v4.83h-9.62zm-12.6 0h9.62v4.83h-9.62zm-12.6 0h9.62v4.83h-9.62zm37.9-10.5h9.62v4.83h-9.62zm-12.6 0h9.62v4.83h-9.62zm-12.6 0h9.62v4.83h-9.62zm-12.6 0h9.62v4.83h-9.62zm37.9-9.96h9.62v4.83h-9.62zm-12.6 0h9.62v4.83h-9.62zm-12.6 0h9.62v4.83h-9.62zm-12.6 0h9.62v4.83h-9.62zm37.9-11h9.62v4.83h-9.62zm-12.6 0h9.62v4.83h-9.62zm-12.6 0h9.62v4.83h-9.62zm-12.6 0h9.62v4.83h-9.62zm37.9-9.96h9.62v4.83h-9.62zm-12.6 0h9.62v4.83h-9.62zm-12.6 0h9.62v4.83h-9.62zm-12.6 0h9.62v4.83h-9.62z" fill="#fff"/>
<g fill="#b79">
<path d="m134 135h244v-3l5.9 5.9-5.9 5.9v-3h-244z"/>
<path d="m527 135h244v-3l5.9 5.9-5.9 5.9v-3h-244z"/>
<path d="m776 223h-244v-3l-5.9 5.9 5.9 5.9v-3h244z"/>
<path d="m384 223h-244v-3l-5.9 5.9 5.9 5.9v-3h244z"/>
<text x="259" y="219">Here is the</text>
<text>
<tspan x="652" y="219">Here you</tspan>
<tspan x="652" y="242">go</tspan>
</text>
<text x="855" y="258" fill="#6ad">
<tspan x="858" y="258">Google –</tspan>
<tspan x="855" y="280">The Identity Provider</tspan>
</text>
</g>
<g transform="translate(8)" fill="none" stroke-width="3">
<g transform="translate(.2 1.1)">
<path d="m402 161c.1 17.9-4 36 .4 53.9 4.3 10.3 16.2 16 27 15.5 14-.3 29-3 39.8-12.6 7.4-7 8.9-17.8 11.3-27 1.9-9.8 2.6-19.7 3.6-29.6" stroke="#a86"/>
<g fill="#444">
<path d="m460 178c-2.1.829-2.35 3.42-2.53 5.38-.299 2.32-1.06 4.96.285 7.08 1.55 2.12 4.94.77 5.7-1.38.689-2.08 1.13-4.41.539-6.55-.645-1.91-1.52-4.15-3.79-4.52h-.2zm-48-4c-1.37.0913-1.45 1.92-2.64 1.2-1.42 2.97-1.6 6.5-.711 9.65.409 1.9 3.57 4.1 4.78 1.84.52-1.26 2.95-1.28 2.67-3.35.19-2-.764-3.81-1.14-5.71-1.19-1.03-.991-3.77-2.96-3.62z"/>
</g>
<path d="m423 211c3.3 7.6 15.3 7.5 16.7-1.6" stroke="#730"/>
</g>
<g stroke="#a86">
<path d="m401 183c-4 2.3-9.4 5.1-8.4 10.5s3.6 7.5 7.8 8.4"/>
<path d="m482 189c3.4 2.8 7.3 8.3 3 12.2-1.6 2-4 3.7-6.7 3.7"/>
</g>
<g transform="translate(.2 -.9)" stroke="#520">
<path d="m444 131c2.6-2.5 4.9-5.4 7.9-7.3m-8.9 8.3c.7-3.4.3-7.2 1.8-10.3m-53.8 62.3c-.1-17.3 1.9-36 13.3-49.9 5.4-6.6 14.7-12 23.3-8.7 5.1 2 8.9 6.3 13.6 9 4.8-1.9 10-3.3 15.3-2.7 14.8.8 30.4 9.5 35 24.3 4 12.2 1.3 26-6 36.5m-71.5-43.5c-3.8 3.2-6.2 7.8-7.2 12.7-.4 1.7-.8 3.3-1.3 4.9m43.5-12.6c1.2 3 2.4 6.1 3.6 9.1m18.4-8.1c1.2 2.8 2.4 5.7 3.6 8.5m-14.6-10.5c3.1 4.2 5.3 8.8 6.1 14m-43.1-13-1.8 11"/>
</g>
</g>
</g>
<use y="436" xlink:href="#a"/>
<use x="381" xlink:href="#b"/>
<path id="b" d="m274 695c-3.5 0-7 .5-9.9 2.4-3.9 2.5.2 10.7-9.9 13-10 2.3-41-.4-50.6.8-9.3 1.2-5.3 4.5-5.1 6.3.2 1.9 3.9 4.4 6.5 4.8s6.3-2.8 8.9-2.2 5 5.5 6.8 5.6 2.6-4.8 4.4-5.2c1.9-.4 4.3 2.5 6.8 2.6s5.7-1.8 8.2-1.8c2.5-.1 4.3 1.8 6.8 1.5 2.6-.3 6.3-4.5 8.6-3.4s-.6 8.2 4.8 10.4 21.6 4.7 27.3 3 6.4-7.5 6.8-13c.5-5.6-1.2-16.4-4.1-20.5s-8.6-3.8-13-4.1c-1.1-.1-2.2-.1-3.4-.1zm10.8 15.2c1.4 0 2.9.7 3.6 2 .9 1.4.6 3.3-.4 4.4-1.4 1.6-3.9 1.9-5.6.7-1.4-.9-2.1-2.7-1.6-4.2.4-1.8 2.2-3 4-2.9z" fill="#cdf" stroke="#000" stroke-width="2"/>
<g fill="#6ad">
<g font-weight="bold">
<g font-size="24">
<text x="470" y="38.5">OpenID Authentication</text>
<text x="451" y="430">vs.</text>
<text x="484" y="472">Pseudo-Authentication using OAuth</text>
</g>
<text x="791" y="822" font-size="16">adapted from a drawing by @_nat_en</text>
<text x="156" y="800">
<tspan>*valet key = limited scope</tspan>
<tspan x="156" y="822">OAuth Token</tspan>
</text>
</g>
<text x="855" y="738">&amp; the API Provider</text>
</g>
<g fill="#b79">
<text x="257" y="133" font-size="19">
<tspan x="257" y="133">Who are YOU? Send me a</tspan>
<tspan x="257" y="157">notarized referral letter.</tspan>
</text>
<text x="254" y="545">
<tspan x="257" y="545">Give me the valet key* to</tspan>
<tspan x="257" y="567">your house (account) so</tspan>
<tspan x="257" y="590">that I know you are the</tspan>
<tspan x="257" y="612">owner of the house</tspan>
</text>
<text x="646" y="569">
<tspan x="646" y="569">Please issue me a</tspan>
<tspan x="646" y="591">valet key* for the core APIs</tspan>
</text>
<text x="259" y="680">valet key*</text>
<text x="259" y="244">certificate</text>
<text x="658" y="133">
<tspan>Please write a referral</tspan>
<tspan x="658" y="156">stating that I'm user@gmail</tspan>
</text>
</g>
<g id="c">
<path d="m351 371c-4.1 0-7.4-3.3-7.4-7.4h7.4c-2 0-3.7-1.6-3.7-3.7s1.6-3.7 3.7-3.7h-7.4v-96c0-4.1-3.3-7.4-7.4-7.4h-134c-4.1 0-7.4 3.3-7.4 7.4s3.3 7.4 7.4 7.4h7.4v96c0 4.1 3.3 7.4 7.4 7.4zm-22-110c0 4.1 3.3 7.4 7.4 7.4 2 0 3.7-1.6 3.7-3.7s-1.6-3.7-3.7-3.7z" fill="#cdf"/>
<path d="m329 261c0 4.1 3.3 7.4 7.4 7.4 2 0 3.7-1.6 3.7-3.7s-1.6-3.7-3.7-3.7zm14.7 103c0 4.1 3.3 7.4 7.4 7.4s7.4-3.3 7.4-7.4-3.3-7.4-7.4-7.4c-2 0-3.7 1.6-3.7 3.7s1.6 3.7 3.7 3.7z" fill="#9ad"/>
<path d="m344 357v-96c0-4.1-3.3-7.4-7.4-7.4h-134c-4.1 0-7.4 3.3-7.4 7.4s3.3 7.4 7.4 7.4h7.4v96c0 4.1 3.3 7.4 7.4 7.4h134c4.1 0 7.4-3.3 7.4-7.4s-3.3-7.4-7.4-7.4zm-7.4-103c-4.1 0-7.4 3.3-7.4 7.4s3.3 7.4 7.4 7.4c2 0 3.7-1.6 3.7-3.7s-1.6-3.7-3.7-3.7h-7.4m-119 7.4h127m14.7 88c-2 0-3.7 1.6-3.7 3.7s1.6 3.7 3.7 3.7h-7.4m7.4 7.4c-4.1 0-7.4-3.3-7.4-7.4v-7.4" fill="none" stroke="#000" stroke-width="2"/>
<text x="275" y="305" font-size="13">
<tspan x="275" y="305">name: Real Name</tspan>
<tspan x="275" y="321">email: user@gmail</tspan>
<tspan x="275" y="338">notary: Google</tspan>
</text>
</g>
<use transform="translate(370)" xlink:href="#c"/>
</svg>
